<mxfile host="app.diagrams.net" modified="2023-12-03T21:49:53.882Z" agent="Mozilla/5.0 (Windows NT 10.0; Win64; x64) AppleWebKit/537.36 (KHTML, like Gecko) Chrome/119.0.0.0 Safari/537.36" etag="yWaiAQFEcTwIRWmPM91t" version="22.1.5" type="gitlab">
  <diagram name="Page-1" id="03018318-947c-dd8e-b7a3-06fadd420f32">
    <mxGraphModel dx="1588" dy="912" grid="1" gridSize="10" guides="1" tooltips="1" connect="1" arrows="1" fold="1" page="1" pageScale="1" pageWidth="1100" pageHeight="850" background="none" math="0" shadow="0">
      <root>
        <mxCell id="0" />
        <mxCell id="1" parent="0" />
        <mxCell id="fgY-tO64WHZBbl3YzXSY-9" value="Home&lt;br&gt;" style="text;html=1;points=[];align=left;verticalAlign=top;spacingTop=-4;fontSize=14;fontFamily=Verdana" vertex="1" parent="1">
          <mxGeometry x="70" y="70" width="60" height="20" as="geometry" />
        </mxCell>
        <mxCell id="fgY-tO64WHZBbl3YzXSY-10" value="History&lt;br&gt;" style="text;html=1;points=[];align=left;verticalAlign=top;spacingTop=-4;fontSize=14;fontFamily=Verdana" vertex="1" parent="1">
          <mxGeometry x="170" y="70" width="60" height="20" as="geometry" />
        </mxCell>
        <mxCell id="fgY-tO64WHZBbl3YzXSY-11" value="Logout&lt;br&gt;" style="text;html=1;points=[];align=left;verticalAlign=top;spacingTop=-4;fontSize=14;fontFamily=Verdana" vertex="1" parent="1">
          <mxGeometry x="1020" y="70" width="60" height="20" as="geometry" />
        </mxCell>
        <mxCell id="fgY-tO64WHZBbl3YzXSY-12" value="" style="line;strokeWidth=1;html=1;rounded=0;shadow=0;labelBackgroundColor=none;fillColor=none;fontFamily=Verdana;fontSize=14;fontColor=#000000;align=center;comic=1;" vertex="1" parent="1">
          <mxGeometry x="40" y="120" width="1060" height="10" as="geometry" />
        </mxCell>
        <mxCell id="fgY-tO64WHZBbl3YzXSY-13" value="" style="line;strokeWidth=1;html=1;rounded=0;shadow=0;labelBackgroundColor=none;fillColor=none;fontFamily=Verdana;fontSize=14;fontColor=#000000;align=center;comic=1;" vertex="1" parent="1">
          <mxGeometry x="40" y="770" width="1060" height="10" as="geometry" />
        </mxCell>
        <mxCell id="fgY-tO64WHZBbl3YzXSY-14" value="Footer" style="text;html=1;points=[];align=left;verticalAlign=top;spacingTop=-4;fontSize=14;fontFamily=Verdana" vertex="1" parent="1">
          <mxGeometry x="510" y="800" width="60" height="20" as="geometry" />
        </mxCell>
        <mxCell id="fgY-tO64WHZBbl3YzXSY-23" value="Image of Car" style="text;html=1;points=[];align=left;verticalAlign=top;spacingTop=-4;fontSize=14;fontFamily=Verdana" vertex="1" parent="1">
          <mxGeometry x="740" y="370" width="60" height="20" as="geometry" />
        </mxCell>
        <mxCell id="fgY-tO64WHZBbl3YzXSY-24" value="" style="shape=ext;double=1;rounded=1;whiteSpace=wrap;html=1;" vertex="1" parent="1">
          <mxGeometry x="80" y="190" width="480" height="520" as="geometry" />
        </mxCell>
        <mxCell id="fgY-tO64WHZBbl3YzXSY-25" value="" style="shape=ext;double=1;rounded=1;whiteSpace=wrap;html=1;fillColor=#dae8fc;strokeColor=#6c8ebf;" vertex="1" parent="1">
          <mxGeometry x="560" y="180" width="480" height="520" as="geometry" />
        </mxCell>
        <mxCell id="fgY-tO64WHZBbl3YzXSY-26" value="Image of Car" style="text;html=1;points=[];align=left;verticalAlign=top;spacingTop=-4;fontSize=14;fontFamily=Verdana" vertex="1" parent="1">
          <mxGeometry x="750" y="415" width="60" height="20" as="geometry" />
        </mxCell>
        <mxCell id="fgY-tO64WHZBbl3YzXSY-27" value="Enter Car Parameters" style="text;html=1;points=[];align=left;verticalAlign=top;spacingTop=-4;fontSize=18;fontFamily=Verdana" vertex="1" parent="1">
          <mxGeometry x="120" y="240" width="60" height="20" as="geometry" />
        </mxCell>
        <mxCell id="fgY-tO64WHZBbl3YzXSY-29" value="Tax" style="text;html=1;points=[];align=left;verticalAlign=top;spacingTop=-4;fontSize=14;fontFamily=Verdana" vertex="1" parent="1">
          <mxGeometry x="120" y="280" width="60" height="20" as="geometry" />
        </mxCell>
        <mxCell id="fgY-tO64WHZBbl3YzXSY-37" value="Engine Size" style="text;html=1;points=[];align=left;verticalAlign=top;spacingTop=-4;fontSize=14;fontFamily=Verdana" vertex="1" parent="1">
          <mxGeometry x="120" y="340" width="60" height="20" as="geometry" />
        </mxCell>
        <mxCell id="fgY-tO64WHZBbl3YzXSY-38" value="Model" style="text;html=1;points=[];align=left;verticalAlign=top;spacingTop=-4;fontSize=14;fontFamily=Verdana" vertex="1" parent="1">
          <mxGeometry x="120" y="390" width="60" height="20" as="geometry" />
        </mxCell>
        <mxCell id="fgY-tO64WHZBbl3YzXSY-39" value="Mileage" style="text;html=1;points=[];align=left;verticalAlign=top;spacingTop=-4;fontSize=14;fontFamily=Verdana" vertex="1" parent="1">
          <mxGeometry x="120" y="450" width="60" height="20" as="geometry" />
        </mxCell>
        <mxCell id="fgY-tO64WHZBbl3YzXSY-40" value="Year" style="text;html=1;points=[];align=left;verticalAlign=top;spacingTop=-4;fontSize=14;fontFamily=Verdana" vertex="1" parent="1">
          <mxGeometry x="120" y="510" width="60" height="20" as="geometry" />
        </mxCell>
        <mxCell id="fgY-tO64WHZBbl3YzXSY-41" value="mpg" style="text;html=1;points=[];align=left;verticalAlign=top;spacingTop=-4;fontSize=14;fontFamily=Verdana" vertex="1" parent="1">
          <mxGeometry x="120" y="580" width="60" height="20" as="geometry" />
        </mxCell>
        <mxCell id="fgY-tO64WHZBbl3YzXSY-42" value="" style="shape=ext;double=1;rounded=1;whiteSpace=wrap;html=1;fillColor=#dae8fc;strokeColor=#6c8ebf;arcSize=0;" vertex="1" parent="1">
          <mxGeometry x="120" y="650" width="120" height="40" as="geometry" />
        </mxCell>
        <mxCell id="fgY-tO64WHZBbl3YzXSY-43" value="Predict" style="text;html=1;points=[];align=left;verticalAlign=top;spacingTop=-4;fontSize=14;fontFamily=Verdana;" vertex="1" parent="1">
          <mxGeometry x="150" y="660" width="60" height="20" as="geometry" />
        </mxCell>
        <mxCell id="fgY-tO64WHZBbl3YzXSY-44" value="" style="shape=ext;double=1;rounded=0;whiteSpace=wrap;html=1;" vertex="1" parent="1">
          <mxGeometry x="120" y="310" width="120" height="30" as="geometry" />
        </mxCell>
        <mxCell id="fgY-tO64WHZBbl3YzXSY-45" value="" style="shape=ext;double=1;rounded=0;whiteSpace=wrap;html=1;" vertex="1" parent="1">
          <mxGeometry x="120" y="360" width="120" height="30" as="geometry" />
        </mxCell>
        <mxCell id="fgY-tO64WHZBbl3YzXSY-46" value="" style="shape=ext;double=1;rounded=0;whiteSpace=wrap;html=1;" vertex="1" parent="1">
          <mxGeometry x="120" y="415" width="120" height="30" as="geometry" />
        </mxCell>
        <mxCell id="fgY-tO64WHZBbl3YzXSY-47" value="" style="shape=ext;double=1;rounded=0;whiteSpace=wrap;html=1;" vertex="1" parent="1">
          <mxGeometry x="120" y="480" width="120" height="30" as="geometry" />
        </mxCell>
        <mxCell id="fgY-tO64WHZBbl3YzXSY-48" value="" style="shape=ext;double=1;rounded=0;whiteSpace=wrap;html=1;" vertex="1" parent="1">
          <mxGeometry x="120" y="540" width="120" height="30" as="geometry" />
        </mxCell>
        <mxCell id="fgY-tO64WHZBbl3YzXSY-51" value="" style="shape=ext;double=1;rounded=0;whiteSpace=wrap;html=1;" vertex="1" parent="1">
          <mxGeometry x="120" y="610" width="120" height="30" as="geometry" />
        </mxCell>
      </root>
    </mxGraphModel>
  </diagram>
</mxfile>
